<mxfile host="65bd71144e">
    <diagram id="cKBd_tNWkHlATPWrMS_m" name="Purpose">
        <mxGraphModel dx="945" dy="696" grid="1" gridSize="10" guides="1" tooltips="1" connect="1" arrows="1" fold="1" page="1" pageScale="1" pageWidth="827" pageHeight="1169" math="0" shadow="0">
            <root>
                <mxCell id="0"/>
                <mxCell id="1" parent="0"/>
                <mxCell id="2" value="" style="shape=actor;whiteSpace=wrap;html=1;" parent="1" vertex="1">
                    <mxGeometry x="330" y="340" width="60" height="90" as="geometry"/>
                </mxCell>
                <mxCell id="3" value="Flights" style="ellipse;shape=cloud;whiteSpace=wrap;html=1;" parent="1" vertex="1">
                    <mxGeometry x="161" y="340" width="120" height="80" as="geometry"/>
                </mxCell>
                <mxCell id="4" value="Airports" style="ellipse;shape=cloud;whiteSpace=wrap;html=1;" parent="1" vertex="1">
                    <mxGeometry x="200" y="240" width="160" height="80" as="geometry"/>
                </mxCell>
                <mxCell id="5" value="Frame" style="ellipse;shape=cloud;whiteSpace=wrap;html=1;" parent="1" vertex="1">
                    <mxGeometry x="440" y="330" width="160" height="80" as="geometry"/>
                </mxCell>
                <mxCell id="6" value="Planes" style="ellipse;shape=cloud;whiteSpace=wrap;html=1;" parent="1" vertex="1">
                    <mxGeometry x="360" y="240" width="160" height="80" as="geometry"/>
                </mxCell>
            </root>
        </mxGraphModel>
    </diagram>
    <diagram id="15UR6XnbTtkx_rhGs56_" name="ER">
        <mxGraphModel dx="945" dy="696" grid="1" gridSize="10" guides="1" tooltips="1" connect="1" arrows="1" fold="1" page="1" pageScale="1" pageWidth="827" pageHeight="1169" math="0" shadow="0">
            <root>
                <mxCell id="2u_GgeGQWRgM_z2mmB_E-0"/>
                <mxCell id="2u_GgeGQWRgM_z2mmB_E-1" parent="2u_GgeGQWRgM_z2mmB_E-0"/>
                <mxCell id="9zeaj3tziZXdnaDd8XnS-2" value="" style="edgeStyle=none;html=1;endArrow=ERone;endFill=0;startArrow=ERmany;startFill=0;" edge="1" parent="2u_GgeGQWRgM_z2mmB_E-1" source="ppNSqpG5gArmucL4nR4V-0" target="9zeaj3tziZXdnaDd8XnS-0">
                    <mxGeometry relative="1" as="geometry"/>
                </mxCell>
                <mxCell id="9zeaj3tziZXdnaDd8XnS-3" value="" style="edgeStyle=none;html=1;startArrow=ERmany;startFill=0;endArrow=ERone;endFill=0;" edge="1" parent="2u_GgeGQWRgM_z2mmB_E-1" source="ppNSqpG5gArmucL4nR4V-0" target="9zeaj3tziZXdnaDd8XnS-1">
                    <mxGeometry relative="1" as="geometry"/>
                </mxCell>
                <mxCell id="ppNSqpG5gArmucL4nR4V-0" value="Flight" style="rounded=0;whiteSpace=wrap;html=1;" parent="2u_GgeGQWRgM_z2mmB_E-1" vertex="1">
                    <mxGeometry x="209" y="250" width="120" height="60" as="geometry"/>
                </mxCell>
                <mxCell id="ppNSqpG5gArmucL4nR4V-22" value="Plane" style="rounded=0;whiteSpace=wrap;html=1;" parent="2u_GgeGQWRgM_z2mmB_E-1" vertex="1">
                    <mxGeometry x="490" y="100" width="120" height="60" as="geometry"/>
                </mxCell>
                <mxCell id="V5lSEYwKekA0PapO-hXK-0" value="Airport" style="rounded=0;whiteSpace=wrap;html=1;" parent="2u_GgeGQWRgM_z2mmB_E-1" vertex="1">
                    <mxGeometry x="209" y="440" width="120" height="60" as="geometry"/>
                </mxCell>
                <mxCell id="V5lSEYwKekA0PapO-hXK-7" value="" style="edgeStyle=none;html=1;startArrow=none;startFill=0;endArrow=none;endFill=0;" parent="2u_GgeGQWRgM_z2mmB_E-1" source="V5lSEYwKekA0PapO-hXK-3" target="V5lSEYwKekA0PapO-hXK-0" edge="1">
                    <mxGeometry relative="1" as="geometry"/>
                </mxCell>
                <mxCell id="V5lSEYwKekA0PapO-hXK-3" value="name" style="ellipse;whiteSpace=wrap;html=1;" parent="2u_GgeGQWRgM_z2mmB_E-1" vertex="1">
                    <mxGeometry x="170" y="550" width="90" height="50" as="geometry"/>
                </mxCell>
                <mxCell id="V5lSEYwKekA0PapO-hXK-8" value="" style="edgeStyle=none;html=1;startArrow=none;startFill=0;endArrow=none;endFill=0;" parent="2u_GgeGQWRgM_z2mmB_E-1" source="V5lSEYwKekA0PapO-hXK-4" target="V5lSEYwKekA0PapO-hXK-0" edge="1">
                    <mxGeometry relative="1" as="geometry"/>
                </mxCell>
                <mxCell id="V5lSEYwKekA0PapO-hXK-4" value="city" style="ellipse;whiteSpace=wrap;html=1;" parent="2u_GgeGQWRgM_z2mmB_E-1" vertex="1">
                    <mxGeometry x="224" y="620" width="90" height="50" as="geometry"/>
                </mxCell>
                <mxCell id="EP0e88sNxeRvX9mwzavs-7" style="edgeStyle=none;html=1;startArrow=none;startFill=0;endArrow=ERone;endFill=0;" parent="2u_GgeGQWRgM_z2mmB_E-1" source="EP0e88sNxeRvX9mwzavs-4" target="ppNSqpG5gArmucL4nR4V-22" edge="1">
                    <mxGeometry relative="1" as="geometry"/>
                </mxCell>
                <mxCell id="9zeaj3tziZXdnaDd8XnS-17" value="" style="edgeStyle=none;html=1;startArrow=none;startFill=0;endArrow=ERmany;endFill=0;" edge="1" parent="2u_GgeGQWRgM_z2mmB_E-1" source="EP0e88sNxeRvX9mwzavs-4" target="ppNSqpG5gArmucL4nR4V-0">
                    <mxGeometry relative="1" as="geometry"/>
                </mxCell>
                <mxCell id="EP0e88sNxeRvX9mwzavs-4" value="assigned" style="rhombus;whiteSpace=wrap;html=1;" parent="2u_GgeGQWRgM_z2mmB_E-1" vertex="1">
                    <mxGeometry x="229" y="90" width="80" height="80" as="geometry"/>
                </mxCell>
                <mxCell id="_6o-B0m6dqda3ddUoEW7-4" value="" style="edgeStyle=none;html=1;startArrow=none;startFill=0;endArrow=none;endFill=0;" parent="2u_GgeGQWRgM_z2mmB_E-1" source="_6o-B0m6dqda3ddUoEW7-0" target="ppNSqpG5gArmucL4nR4V-22" edge="1">
                    <mxGeometry relative="1" as="geometry"/>
                </mxCell>
                <mxCell id="_6o-B0m6dqda3ddUoEW7-0" value="registration&lt;br&gt;number" style="ellipse;whiteSpace=wrap;html=1;" parent="2u_GgeGQWRgM_z2mmB_E-1" vertex="1">
                    <mxGeometry x="690" y="10" width="90" height="50" as="geometry"/>
                </mxCell>
                <mxCell id="Ciq9sxlkXLAkDAncEnbV-1" value="" style="edgeStyle=none;html=1;endArrow=none;endFill=0;" parent="2u_GgeGQWRgM_z2mmB_E-1" source="Ciq9sxlkXLAkDAncEnbV-0" target="V5lSEYwKekA0PapO-hXK-0" edge="1">
                    <mxGeometry relative="1" as="geometry"/>
                </mxCell>
                <mxCell id="Ciq9sxlkXLAkDAncEnbV-0" value="country" style="ellipse;whiteSpace=wrap;html=1;" parent="2u_GgeGQWRgM_z2mmB_E-1" vertex="1">
                    <mxGeometry x="280" y="550" width="90" height="50" as="geometry"/>
                </mxCell>
                <mxCell id="9zeaj3tziZXdnaDd8XnS-5" value="" style="edgeStyle=none;html=1;startArrow=ERmany;startFill=0;endArrow=none;endFill=0;" edge="1" parent="2u_GgeGQWRgM_z2mmB_E-1" source="9zeaj3tziZXdnaDd8XnS-0" target="9zeaj3tziZXdnaDd8XnS-4">
                    <mxGeometry relative="1" as="geometry"/>
                </mxCell>
                <mxCell id="9zeaj3tziZXdnaDd8XnS-0" value="Destination" style="rounded=0;whiteSpace=wrap;html=1;" vertex="1" parent="2u_GgeGQWRgM_z2mmB_E-1">
                    <mxGeometry x="380" y="250" width="120" height="60" as="geometry"/>
                </mxCell>
                <mxCell id="9zeaj3tziZXdnaDd8XnS-1" value="Origin" style="rounded=0;whiteSpace=wrap;html=1;" vertex="1" parent="2u_GgeGQWRgM_z2mmB_E-1">
                    <mxGeometry x="50" y="250" width="120" height="60" as="geometry"/>
                </mxCell>
                <mxCell id="9zeaj3tziZXdnaDd8XnS-6" style="edgeStyle=none;html=1;startArrow=none;startFill=0;endArrow=ERone;endFill=0;" edge="1" parent="2u_GgeGQWRgM_z2mmB_E-1" source="9zeaj3tziZXdnaDd8XnS-4" target="V5lSEYwKekA0PapO-hXK-0">
                    <mxGeometry relative="1" as="geometry"/>
                </mxCell>
                <mxCell id="9zeaj3tziZXdnaDd8XnS-4" value="has" style="rhombus;whiteSpace=wrap;html=1;rounded=0;" vertex="1" parent="2u_GgeGQWRgM_z2mmB_E-1">
                    <mxGeometry x="319" y="330" width="80" height="80" as="geometry"/>
                </mxCell>
                <mxCell id="9zeaj3tziZXdnaDd8XnS-8" value="" style="edgeStyle=none;html=1;startArrow=none;startFill=0;endArrow=ERmany;endFill=0;" edge="1" parent="2u_GgeGQWRgM_z2mmB_E-1" source="9zeaj3tziZXdnaDd8XnS-7" target="9zeaj3tziZXdnaDd8XnS-1">
                    <mxGeometry relative="1" as="geometry"/>
                </mxCell>
                <mxCell id="9zeaj3tziZXdnaDd8XnS-9" style="edgeStyle=none;html=1;startArrow=none;startFill=0;endArrow=ERone;endFill=0;" edge="1" parent="2u_GgeGQWRgM_z2mmB_E-1" source="9zeaj3tziZXdnaDd8XnS-7" target="V5lSEYwKekA0PapO-hXK-0">
                    <mxGeometry relative="1" as="geometry"/>
                </mxCell>
                <mxCell id="9zeaj3tziZXdnaDd8XnS-7" value="has" style="rhombus;whiteSpace=wrap;html=1;rounded=0;" vertex="1" parent="2u_GgeGQWRgM_z2mmB_E-1">
                    <mxGeometry x="139" y="330" width="80" height="80" as="geometry"/>
                </mxCell>
                <mxCell id="9zeaj3tziZXdnaDd8XnS-13" value="" style="edgeStyle=none;html=1;startArrow=none;startFill=0;endArrow=none;endFill=0;" edge="1" parent="2u_GgeGQWRgM_z2mmB_E-1" source="9zeaj3tziZXdnaDd8XnS-10" target="ppNSqpG5gArmucL4nR4V-22">
                    <mxGeometry relative="1" as="geometry"/>
                </mxCell>
                <mxCell id="9zeaj3tziZXdnaDd8XnS-10" value="manufacturer" style="ellipse;whiteSpace=wrap;html=1;" vertex="1" parent="2u_GgeGQWRgM_z2mmB_E-1">
                    <mxGeometry x="690" y="80" width="90" height="50" as="geometry"/>
                </mxCell>
                <mxCell id="9zeaj3tziZXdnaDd8XnS-15" style="edgeStyle=none;html=1;startArrow=none;startFill=0;endArrow=none;endFill=0;" edge="1" parent="2u_GgeGQWRgM_z2mmB_E-1" source="9zeaj3tziZXdnaDd8XnS-11" target="ppNSqpG5gArmucL4nR4V-22">
                    <mxGeometry relative="1" as="geometry"/>
                </mxCell>
                <mxCell id="9zeaj3tziZXdnaDd8XnS-11" value="model" style="ellipse;whiteSpace=wrap;html=1;" vertex="1" parent="2u_GgeGQWRgM_z2mmB_E-1">
                    <mxGeometry x="690" y="150" width="90" height="50" as="geometry"/>
                </mxCell>
                <mxCell id="9zeaj3tziZXdnaDd8XnS-16" style="edgeStyle=none;html=1;startArrow=none;startFill=0;endArrow=none;endFill=0;" edge="1" parent="2u_GgeGQWRgM_z2mmB_E-1" source="9zeaj3tziZXdnaDd8XnS-12" target="ppNSqpG5gArmucL4nR4V-22">
                    <mxGeometry relative="1" as="geometry"/>
                </mxCell>
                <mxCell id="9zeaj3tziZXdnaDd8XnS-12" value="capacity" style="ellipse;whiteSpace=wrap;html=1;" vertex="1" parent="2u_GgeGQWRgM_z2mmB_E-1">
                    <mxGeometry x="690" y="220" width="90" height="50" as="geometry"/>
                </mxCell>
                <mxCell id="9zeaj3tziZXdnaDd8XnS-19" value="" style="edgeStyle=none;html=1;startArrow=none;startFill=0;endArrow=none;endFill=0;" edge="1" parent="2u_GgeGQWRgM_z2mmB_E-1" source="9zeaj3tziZXdnaDd8XnS-18" target="ppNSqpG5gArmucL4nR4V-22">
                    <mxGeometry relative="1" as="geometry"/>
                </mxCell>
                <mxCell id="9zeaj3tziZXdnaDd8XnS-18" value="range" style="ellipse;whiteSpace=wrap;html=1;" vertex="1" parent="2u_GgeGQWRgM_z2mmB_E-1">
                    <mxGeometry x="570" y="220" width="90" height="50" as="geometry"/>
                </mxCell>
                <mxCell id="9zeaj3tziZXdnaDd8XnS-21" style="edgeStyle=none;html=1;startArrow=none;startFill=0;endArrow=none;endFill=0;" edge="1" parent="2u_GgeGQWRgM_z2mmB_E-1" source="9zeaj3tziZXdnaDd8XnS-20" target="ppNSqpG5gArmucL4nR4V-0">
                    <mxGeometry relative="1" as="geometry"/>
                </mxCell>
                <mxCell id="9zeaj3tziZXdnaDd8XnS-20" value="date" style="ellipse;whiteSpace=wrap;html=1;" vertex="1" parent="2u_GgeGQWRgM_z2mmB_E-1">
                    <mxGeometry x="110" y="160" width="90" height="50" as="geometry"/>
                </mxCell>
            </root>
        </mxGraphModel>
    </diagram>
    <diagram id="g17sYoDOzrbhVf1pqz28" name="UML">
        <mxGraphModel dx="945" dy="696" grid="1" gridSize="10" guides="1" tooltips="1" connect="1" arrows="1" fold="1" page="1" pageScale="1" pageWidth="827" pageHeight="1169" math="0" shadow="0">
            <root>
                <mxCell id="H7DWUn0vDwxtsgN2xfW3-0"/>
                <mxCell id="H7DWUn0vDwxtsgN2xfW3-1" parent="H7DWUn0vDwxtsgN2xfW3-0"/>
                <mxCell id="ibTVMDYp4FMrRR7t5OcI-6" style="edgeStyle=none;html=1;startArrow=ERone;startFill=0;endArrow=ERone;endFill=0;" edge="1" parent="H7DWUn0vDwxtsgN2xfW3-1" source="fPOA35cbHbnLuMqZz_aw-0" target="fPOA35cbHbnLuMqZz_aw-4">
                    <mxGeometry relative="1" as="geometry"/>
                </mxCell>
                <mxCell id="ibTVMDYp4FMrRR7t5OcI-7" style="edgeStyle=none;html=1;startArrow=ERone;startFill=0;endArrow=ERone;endFill=0;" edge="1" parent="H7DWUn0vDwxtsgN2xfW3-1" source="fPOA35cbHbnLuMqZz_aw-0" target="fPOA35cbHbnLuMqZz_aw-8">
                    <mxGeometry relative="1" as="geometry"/>
                </mxCell>
                <mxCell id="fPOA35cbHbnLuMqZz_aw-0" value="Flight" style="swimlane;fontStyle=0;childLayout=stackLayout;horizontal=1;startSize=30;horizontalStack=0;resizeParent=1;resizeParentMax=0;resizeLast=0;collapsible=1;marginBottom=0;" vertex="1" parent="H7DWUn0vDwxtsgN2xfW3-1">
                    <mxGeometry x="344" y="400" width="140" height="120" as="geometry"/>
                </mxCell>
                <mxCell id="fPOA35cbHbnLuMqZz_aw-1" value="+ flight_id: int" style="text;strokeColor=none;fillColor=none;align=left;verticalAlign=middle;spacingLeft=4;spacingRight=4;overflow=hidden;points=[[0,0.5],[1,0.5]];portConstraint=eastwest;rotatable=0;fontStyle=5" vertex="1" parent="fPOA35cbHbnLuMqZz_aw-0">
                    <mxGeometry y="30" width="140" height="30" as="geometry"/>
                </mxCell>
                <mxCell id="fPOA35cbHbnLuMqZz_aw-2" value="+ date: DateTimer" style="text;strokeColor=none;fillColor=none;align=left;verticalAlign=middle;spacingLeft=4;spacingRight=4;overflow=hidden;points=[[0,0.5],[1,0.5]];portConstraint=eastwest;rotatable=0;" vertex="1" parent="fPOA35cbHbnLuMqZz_aw-0">
                    <mxGeometry y="60" width="140" height="30" as="geometry"/>
                </mxCell>
                <mxCell id="ApfwqCtkHL3Vkl6SHlMp-0" value="+ fk_plane_id: int" style="text;strokeColor=none;fillColor=none;align=left;verticalAlign=middle;spacingLeft=4;spacingRight=4;overflow=hidden;points=[[0,0.5],[1,0.5]];portConstraint=eastwest;rotatable=0;fontStyle=2" vertex="1" parent="fPOA35cbHbnLuMqZz_aw-0">
                    <mxGeometry y="90" width="140" height="30" as="geometry"/>
                </mxCell>
                <mxCell id="ibTVMDYp4FMrRR7t5OcI-4" style="edgeStyle=orthogonalEdgeStyle;html=1;startArrow=ERmany;startFill=0;endArrow=ERone;endFill=0;exitX=1;exitY=0.5;exitDx=0;exitDy=0;entryX=0;entryY=0.5;entryDx=0;entryDy=0;" edge="1" parent="H7DWUn0vDwxtsgN2xfW3-1" source="ibTVMDYp4FMrRR7t5OcI-1" target="58dsIIJwV0qnX1QviSA8-1">
                    <mxGeometry relative="1" as="geometry"/>
                </mxCell>
                <mxCell id="fPOA35cbHbnLuMqZz_aw-4" value="Origin" style="swimlane;fontStyle=0;childLayout=stackLayout;horizontal=1;startSize=30;horizontalStack=0;resizeParent=1;resizeParentMax=0;resizeLast=0;collapsible=1;marginBottom=0;" vertex="1" parent="H7DWUn0vDwxtsgN2xfW3-1">
                    <mxGeometry x="80" y="415" width="140" height="90" as="geometry"/>
                </mxCell>
                <mxCell id="fPOA35cbHbnLuMqZz_aw-5" value="+ origin_id: int" style="text;strokeColor=none;fillColor=none;align=left;verticalAlign=middle;spacingLeft=4;spacingRight=4;overflow=hidden;points=[[0,0.5],[1,0.5]];portConstraint=eastwest;rotatable=0;fontStyle=5" vertex="1" parent="fPOA35cbHbnLuMqZz_aw-4">
                    <mxGeometry y="30" width="140" height="30" as="geometry"/>
                </mxCell>
                <mxCell id="ibTVMDYp4FMrRR7t5OcI-1" value="+ fk_airport_id: string" style="text;strokeColor=none;fillColor=none;align=left;verticalAlign=middle;spacingLeft=4;spacingRight=4;overflow=hidden;points=[[0,0.5],[1,0.5]];portConstraint=eastwest;rotatable=0;fontStyle=2" vertex="1" parent="fPOA35cbHbnLuMqZz_aw-4">
                    <mxGeometry y="60" width="140" height="30" as="geometry"/>
                </mxCell>
                <mxCell id="ibTVMDYp4FMrRR7t5OcI-5" style="edgeStyle=orthogonalEdgeStyle;html=1;startArrow=ERmany;startFill=0;endArrow=none;endFill=0;exitX=0;exitY=0.5;exitDx=0;exitDy=0;entryX=1;entryY=0.5;entryDx=0;entryDy=0;" edge="1" parent="H7DWUn0vDwxtsgN2xfW3-1" source="ibTVMDYp4FMrRR7t5OcI-0" target="58dsIIJwV0qnX1QviSA8-1">
                    <mxGeometry relative="1" as="geometry"/>
                </mxCell>
                <mxCell id="fPOA35cbHbnLuMqZz_aw-8" value="Destination" style="swimlane;fontStyle=0;childLayout=stackLayout;horizontal=1;startSize=30;horizontalStack=0;resizeParent=1;resizeParentMax=0;resizeLast=0;collapsible=1;marginBottom=0;" vertex="1" parent="H7DWUn0vDwxtsgN2xfW3-1">
                    <mxGeometry x="620" y="415" width="140" height="90" as="geometry"/>
                </mxCell>
                <mxCell id="fPOA35cbHbnLuMqZz_aw-11" value="+ dest_id: int" style="text;strokeColor=none;fillColor=none;align=left;verticalAlign=middle;spacingLeft=4;spacingRight=4;overflow=hidden;points=[[0,0.5],[1,0.5]];portConstraint=eastwest;rotatable=0;fontStyle=5" vertex="1" parent="fPOA35cbHbnLuMqZz_aw-8">
                    <mxGeometry y="30" width="140" height="30" as="geometry"/>
                </mxCell>
                <mxCell id="ibTVMDYp4FMrRR7t5OcI-0" value="+ fk_airport_id: string" style="text;strokeColor=none;fillColor=none;align=left;verticalAlign=middle;spacingLeft=4;spacingRight=4;overflow=hidden;points=[[0,0.5],[1,0.5]];portConstraint=eastwest;rotatable=0;fontStyle=2" vertex="1" parent="fPOA35cbHbnLuMqZz_aw-8">
                    <mxGeometry y="60" width="140" height="30" as="geometry"/>
                </mxCell>
                <mxCell id="58dsIIJwV0qnX1QviSA8-0" value="Airport" style="swimlane;fontStyle=0;childLayout=stackLayout;horizontal=1;startSize=30;horizontalStack=0;resizeParent=1;resizeParentMax=0;resizeLast=0;collapsible=1;marginBottom=0;" vertex="1" parent="H7DWUn0vDwxtsgN2xfW3-1">
                    <mxGeometry x="344" y="595" width="140" height="150" as="geometry"/>
                </mxCell>
                <mxCell id="58dsIIJwV0qnX1QviSA8-1" value="+ flight_id: int" style="text;strokeColor=none;fillColor=none;align=left;verticalAlign=middle;spacingLeft=4;spacingRight=4;overflow=hidden;points=[[0,0.5],[1,0.5]];portConstraint=eastwest;rotatable=0;fontStyle=5" vertex="1" parent="58dsIIJwV0qnX1QviSA8-0">
                    <mxGeometry y="30" width="140" height="30" as="geometry"/>
                </mxCell>
                <mxCell id="58dsIIJwV0qnX1QviSA8-2" value="+ name: string" style="text;strokeColor=none;fillColor=none;align=left;verticalAlign=middle;spacingLeft=4;spacingRight=4;overflow=hidden;points=[[0,0.5],[1,0.5]];portConstraint=eastwest;rotatable=0;" vertex="1" parent="58dsIIJwV0qnX1QviSA8-0">
                    <mxGeometry y="60" width="140" height="30" as="geometry"/>
                </mxCell>
                <mxCell id="58dsIIJwV0qnX1QviSA8-3" value="+ country: string" style="text;strokeColor=none;fillColor=none;align=left;verticalAlign=middle;spacingLeft=4;spacingRight=4;overflow=hidden;points=[[0,0.5],[1,0.5]];portConstraint=eastwest;rotatable=0;" vertex="1" parent="58dsIIJwV0qnX1QviSA8-0">
                    <mxGeometry y="90" width="140" height="30" as="geometry"/>
                </mxCell>
                <mxCell id="-EFN7i_hQpjHR_kCKeKe-0" value="+ city: string" style="text;strokeColor=none;fillColor=none;align=left;verticalAlign=middle;spacingLeft=4;spacingRight=4;overflow=hidden;points=[[0,0.5],[1,0.5]];portConstraint=eastwest;rotatable=0;" vertex="1" parent="58dsIIJwV0qnX1QviSA8-0">
                    <mxGeometry y="120" width="140" height="30" as="geometry"/>
                </mxCell>
                <mxCell id="wU1ZE2j_8xutB3v7LNH0-2" style="html=1;startArrow=ERone;startFill=0;endArrow=ERmany;endFill=0;" edge="1" parent="H7DWUn0vDwxtsgN2xfW3-1" source="ibTVMDYp4FMrRR7t5OcI-8" target="fPOA35cbHbnLuMqZz_aw-0">
                    <mxGeometry relative="1" as="geometry"/>
                </mxCell>
                <mxCell id="ibTVMDYp4FMrRR7t5OcI-8" value="Plane" style="swimlane;fontStyle=0;childLayout=stackLayout;horizontal=1;startSize=30;horizontalStack=0;resizeParent=1;resizeParentMax=0;resizeLast=0;collapsible=1;marginBottom=0;" vertex="1" parent="H7DWUn0vDwxtsgN2xfW3-1">
                    <mxGeometry x="344" y="80" width="140" height="210" as="geometry"/>
                </mxCell>
                <mxCell id="ibTVMDYp4FMrRR7t5OcI-9" value="+ flight_id: int" style="text;strokeColor=none;fillColor=none;align=left;verticalAlign=middle;spacingLeft=4;spacingRight=4;overflow=hidden;points=[[0,0.5],[1,0.5]];portConstraint=eastwest;rotatable=0;fontStyle=5" vertex="1" parent="ibTVMDYp4FMrRR7t5OcI-8">
                    <mxGeometry y="30" width="140" height="30" as="geometry"/>
                </mxCell>
                <mxCell id="ibTVMDYp4FMrRR7t5OcI-10" value="+ registrationNr: int" style="text;strokeColor=none;fillColor=none;align=left;verticalAlign=middle;spacingLeft=4;spacingRight=4;overflow=hidden;points=[[0,0.5],[1,0.5]];portConstraint=eastwest;rotatable=0;" vertex="1" parent="ibTVMDYp4FMrRR7t5OcI-8">
                    <mxGeometry y="60" width="140" height="30" as="geometry"/>
                </mxCell>
                <mxCell id="RnPPlDHqjtS_28sbqdzH-0" value="+ manufacturer: string" style="text;strokeColor=none;fillColor=none;align=left;verticalAlign=middle;spacingLeft=4;spacingRight=4;overflow=hidden;points=[[0,0.5],[1,0.5]];portConstraint=eastwest;rotatable=0;" vertex="1" parent="ibTVMDYp4FMrRR7t5OcI-8">
                    <mxGeometry y="90" width="140" height="30" as="geometry"/>
                </mxCell>
                <mxCell id="RnPPlDHqjtS_28sbqdzH-1" value="+ model: string" style="text;strokeColor=none;fillColor=none;align=left;verticalAlign=middle;spacingLeft=4;spacingRight=4;overflow=hidden;points=[[0,0.5],[1,0.5]];portConstraint=eastwest;rotatable=0;" vertex="1" parent="ibTVMDYp4FMrRR7t5OcI-8">
                    <mxGeometry y="120" width="140" height="30" as="geometry"/>
                </mxCell>
                <mxCell id="RnPPlDHqjtS_28sbqdzH-2" value="+ capacity: int" style="text;strokeColor=none;fillColor=none;align=left;verticalAlign=middle;spacingLeft=4;spacingRight=4;overflow=hidden;points=[[0,0.5],[1,0.5]];portConstraint=eastwest;rotatable=0;" vertex="1" parent="ibTVMDYp4FMrRR7t5OcI-8">
                    <mxGeometry y="150" width="140" height="30" as="geometry"/>
                </mxCell>
                <mxCell id="wU1ZE2j_8xutB3v7LNH0-0" value="+ range: int" style="text;strokeColor=none;fillColor=none;align=left;verticalAlign=middle;spacingLeft=4;spacingRight=4;overflow=hidden;points=[[0,0.5],[1,0.5]];portConstraint=eastwest;rotatable=0;" vertex="1" parent="ibTVMDYp4FMrRR7t5OcI-8">
                    <mxGeometry y="180" width="140" height="30" as="geometry"/>
                </mxCell>
            </root>
        </mxGraphModel>
    </diagram>
</mxfile>